<?xml version="1.0" encoding="UTF-8"?>
<svg width="1024px" height="1024px" viewBox="0 0 1024 1024" version="1.1" xmlns="http://www.w3.org/2000/svg" xmlns:xlink="http://www.w3.org/1999/xlink">
    <title>work-live</title>
    <g id="work-live" stroke="none" stroke-width="1" fill="none" fill-rule="evenodd">
        <rect id="Rectangle" fill="#004A7F" x="0" y="0" width="1024" height="1024"></rect>
        <path d="M367.823,688.794 L203,730 L238.225,589.101 C203.339,543.145 183,487.913 183,428.5 C183,268.614 330.298,139 512,139 C693.702,139 841,268.614 841,428.5 C841,588.386 693.702,718 512,718 C460.287,718 411.361,707.501 367.823,688.794 Z M418.667,404.468 L415,404.468 C406.716,404.468 400,411.184 400,419.468 L400,551 C400,559.284 406.716,566 415,566 L609,566 C617.284,566 624,559.284 624,551 L624,419.468 C624,411.184 617.284,404.468 609,404.468 L605.333,404.468 L605.333,367.191 C605.333,315.77 563.576,274 511.956,274 C460.424,274 418.667,315.77 418.667,367.191 L418.667,404.468 Z M568,404.468 L456,404.468 L456,367.198 C456,336.345 481.054,311.277 511.974,311.277 C542.946,311.277 568,336.345 568,367.198 C568,387.806 568,400.229 568,404.468 Z" id="Shape" fill="#FFFFFF"></path>
        <path d="M567.951,847.99 C567.951,878.94 542.908,904 511.949,904 C481.043,904 456,878.94 456,847.99 C456,817.099 481.043,792 511.949,792 C542.908,792 567.951,817.099 567.951,847.99 Z M366,847.99 C366,878.94 340.957,904 309.998,904 C279.092,904 254.049,878.94 254.049,847.99 C254.049,817.099 279.092,792 309.998,792 C340.957,792 366,817.099 366,847.99 Z M769.902,847.99 C769.902,878.94 744.859,904 713.901,904 C682.995,904 657.951,878.94 657.951,847.99 C657.951,817.099 682.995,792 713.901,792 C744.859,792 769.902,817.099 769.902,847.99 Z" id="Shape" fill="#0096FF"></path>
    </g>
</svg>