<?xml version="1.0" encoding="UTF-8"?>
<svg width="1024px" height="1024px" viewBox="0 0 1024 1024" version="1.1" xmlns="http://www.w3.org/2000/svg" xmlns:xlink="http://www.w3.org/1999/xlink">
    <title>Threema App Icon</title>
    <defs>
        <path d="M0,0 L1024,0 L1024,1024 L0,1024 L0,0 Z" id="path-1"></path>
    </defs>
    <g id="Frame" stroke="none" fill="none" xlink:href="#path-1" fill-rule="evenodd" stroke-width="1">
        <g id="Group" transform="translate(137, 31)" fill="#FFFFFF">
            <path d="M169.17385,962 C203.950518,962 232.142857,933.819517 232.142857,899.055807 C232.142857,864.293764 203.950518,836.113281 169.17385,836.113281 C134.395847,836.113281 106.203008,864.293764 106.203008,899.055807 C106.203008,933.819517 134.395847,962 169.17385,962 Z" id="Path" fill-rule="nonzero"></path>
            <path d="M375.000834,962 C409.777548,962 437.969925,933.819517 437.969925,899.055807 C437.969925,864.293764 409.777548,836.113281 375.000834,836.113281 C340.222452,836.113281 312.030075,864.293764 312.030075,899.055807 C312.030075,933.819517 340.222452,962 375.000834,962 Z" id="Path" fill-rule="nonzero"></path>
            <path d="M580.826234,962 C615.604616,962 643.796992,933.819517 643.796992,899.055807 C643.796992,864.293764 615.604616,836.113281 580.826234,836.113281 C546.049519,836.113281 517.857143,864.293764 517.857143,899.055807 C517.857143,933.819517 546.049519,962 580.826234,962 Z" id="Path" fill-rule="nonzero"></path>
            <path d="M374.886494,0 C581.612384,0 750,167.926487 750,374.364569 C750,580.804318 581.826042,748.744141 375.098483,748.744141 C298.814198,748.744141 228.009908,726.012899 168.794902,686.871224 L24.6631547,732.955454 L71.4302406,593.859322 C26.5453489,532.199766 0,456.223377 0,374.364569 C0,167.928154 168.162273,0 374.886494,0 Z M374.674505,176.129204 C315.254186,176.129204 266.782176,224.535398 266.778837,283.874657 L266.778837,334.174427 L263.420399,334.174427 C244.668563,334.174427 229.487154,349.323032 229.482146,368.048761 L229.482146,504.002824 C229.485485,522.73022 244.666894,537.878826 263.420399,537.878826 L485.731645,537.878826 C504.485151,537.878826 519.669898,522.73022 519.669898,504.002824 L519.669898,368.048761 C519.66656,349.323032 504.483482,334.174427 485.731645,334.174427 L482.570173,334.174427 L482.570173,283.874657 C482.565166,224.533731 434.098163,176.129204 374.674505,176.129204 Z M374.886494,220.324859 C409.864661,220.324859 438.521553,248.945188 438.524891,283.874657 L438.524891,334.174427 L311.248097,334.174427 L311.248097,283.874657 C311.251436,248.736828 339.909997,220.328193 374.886494,220.324859 Z" id="Shape" fill-rule="nonzero"></path>
        </g>
    </g>
</svg>