<svg x="0" y="0" version="1.1" xmlns="http://www.w3.org/2000/svg" xmlns:xlink="http://www.w3.org/1999/xlink" viewBox="0 0 24 24" width="24" height="24" style="fill: rgb(255, 255, 255);"><g transform=""><g fill="none" stroke="none" stroke-width="1" stroke-linecap="butt" stroke-linejoin="miter" stroke-miterlimit="10" stroke-dasharray="" stroke-dashoffset="0" font-family="none" font-weight="none" font-size="none" text-anchor="start" mix-blend-mode="normal"><g><g><g><path d="M0,24l0,-24l24,0l0,24z" fill="none" font-family="sans-serif" font-weight="normal" font-size="12"/><path d="M12,24c-6.62742,0 -12,-5.37258 -12,-12l0,0c0,-6.62742 5.37258,-12 12,-12l0,0c6.62742,0 12,5.37258 12,12l0,0c0,6.62742 -5.37258,12 -12,12z" fill="#c0392b" font-family="sans-serif" font-weight="normal" font-size="12"/><g fill="#ffffff" font-family="serif" font-weight="400" font-size="16"><g id="surface1"><path d="M12,3c-4.95,0 -9,4.05 -9,9c0,4.95 4.05,9 9,9c4.95,0 9,-4.05 9,-9c0,-4.95 -4.05,-9 -9,-9z M12,4.8c3.95859,0 7.2,3.24141 7.2,7.2c0,1.65586 -0.56953,3.1957 -1.51875,4.41563l-10.09687,-10.09687c1.21992,-0.94922 2.75977,-1.51875 4.41563,-1.51875z M6.31875,7.58437l10.09687,10.09687c-1.21992,0.94922 -2.75977,1.51875 -4.41563,1.51875c-3.95859,0 -7.2,-3.24141 -7.2,-7.2c0,-1.65586 0.56953,-3.1957 1.51875,-4.41563z"/></g></g><g fill="none" font-family="sans-serif" font-weight="normal" font-size="12"/></g></g></g></g></g></svg>