<svg xmlns="http://www.w3.org/2000/svg" viewBox="0 0 326.34 39.94" fill="white">
    <!-- Threema -->
    <path d="M155.45,288.6v6.9H143.79v32.06H135.6V295.5H123.89v-6.9h31.56Z" transform="translate(-123.89 -288.6)"/>
    <path d="M178.68,298.91a8.46,8.46,0,0,1,3.57,2.83,7.55,7.55,0,0,1,1.45,3.32,41.07,41.07,0,0,1,.26,5.57v16.93h-7.69V310a7.77,7.77,0,0,0-.79-3.76q-1-2-3.88-2a5.33,5.33,0,0,0-4.5,2,9.2,9.2,0,0,0-1.53,5.7v15.61H158V288.73h7.53v13.75a9.22,9.22,0,0,1,3.78-3.5,10.63,10.63,0,0,1,4.51-1A12.2,12.2,0,0,1,178.68,298.91Z" transform="translate(-123.89 -288.6)"/>
    <path d="M202.72,298.08l0.65,0v7.72q-0.71-.08-1.27-0.11l-0.9,0q-4.55,0-6.11,3a11.52,11.52,0,0,0-.87,5.13v13.77h-7.59V298.75h7.19v5a15.94,15.94,0,0,1,3-3.94,8.28,8.28,0,0,1,5.5-1.77h0.36Z" transform="translate(-123.89 -288.6)"/>
    <path d="M224.93,299.34a11.72,11.72,0,0,1,5,4.26,14.17,14.17,0,0,1,2.3,6,36.85,36.85,0,0,1,.25,5.72h-21q0.18,4.34,3,6.08a7.65,7.65,0,0,0,4.15,1.08,5.85,5.85,0,0,0,5.73-3.3h7.69a9.41,9.41,0,0,1-2.79,5.21q-3.87,4.2-10.84,4.2A15.71,15.71,0,0,1,208.28,325q-4.4-3.55-4.4-11.54,0-7.49,4-11.48a13.89,13.89,0,0,1,10.3-4A16.4,16.4,0,0,1,224.93,299.34Zm-11.27,6.51a7.83,7.83,0,0,0-2,4.46h13a6.29,6.29,0,0,0-2-4.55,6.6,6.6,0,0,0-4.47-1.55A6,6,0,0,0,213.66,305.84Z" transform="translate(-123.89 -288.6)"/>
    <path d="M255.07,299.34a11.73,11.73,0,0,1,5,4.26,14.17,14.17,0,0,1,2.3,6,37,37,0,0,1,.25,5.72h-21q0.17,4.34,3,6.08a7.65,7.65,0,0,0,4.15,1.08,5.85,5.85,0,0,0,5.73-3.3h7.69a9.4,9.4,0,0,1-2.79,5.21q-3.87,4.2-10.84,4.2A15.71,15.71,0,0,1,238.42,325q-4.4-3.55-4.4-11.54,0-7.49,4-11.48a13.89,13.89,0,0,1,10.3-4A16.41,16.41,0,0,1,255.07,299.34Zm-11.27,6.51a7.82,7.82,0,0,0-2,4.46h13a6.29,6.29,0,0,0-2-4.55,6.6,6.6,0,0,0-4.47-1.55A6,6,0,0,0,243.8,305.84Z" transform="translate(-123.89 -288.6)"/>
    <path d="M300.73,298.86a8.38,8.38,0,0,1,3.36,2.59,8.29,8.29,0,0,1,1.64,3.7,25.6,25.6,0,0,1,.26,4.26l-0.05,18.16h-7.72V309.22a6,6,0,0,0-.53-2.7,3.76,3.76,0,0,0-3.7-2,4.33,4.33,0,0,0-4.31,2.59,8.13,8.13,0,0,0-.61,3.3v17.16h-7.59V310.41a9.64,9.64,0,0,0-.53-3.73,3.69,3.69,0,0,0-3.73-2.09q-3.22,0-4.33,2.09a8,8,0,0,0-.61,3.54v17.34h-7.64V298.8H272V303a12.12,12.12,0,0,1,2.64-3.2,10.46,10.46,0,0,1,11-.24,8.47,8.47,0,0,1,2.48,3.46,9.58,9.58,0,0,1,3.67-3.73,11.21,11.21,0,0,1,5.18-1.19A10,10,0,0,1,300.73,298.86Z" transform="translate(-123.89 -288.6)"/>
    <path d="M321.6,310a11.91,11.91,0,0,0,3-.66,2.27,2.27,0,0,0,1.62-2.14,2.53,2.53,0,0,0-1.25-2.45,7.87,7.87,0,0,0-3.66-.67,4.8,4.8,0,0,0-3.83,1.32,5.44,5.44,0,0,0-1.07,2.64h-7.27a11,11,0,0,1,2.12-6.21q3-3.81,10.3-3.81a18.37,18.37,0,0,1,8.44,1.88q3.69,1.88,3.69,7.08v13.22q0,1.37.05,3.33a4.18,4.18,0,0,0,.45,2,2.69,2.69,0,0,0,1.11.87v1.11h-8.19a8.25,8.25,0,0,1-.48-1.64q-0.13-.77-0.21-1.74a15.55,15.55,0,0,1-3.62,2.88,10.93,10.93,0,0,1-5.53,1.4,9.54,9.54,0,0,1-6.5-2.23,7.94,7.94,0,0,1-2.57-6.33q0-5.31,4.13-7.69a18.43,18.43,0,0,1,6.66-1.85Zm4.61,3.52a8.37,8.37,0,0,1-1.46.73,12.38,12.38,0,0,1-2,.52l-1.72.32a11.27,11.27,0,0,0-3.46,1,3.44,3.44,0,0,0-1.78,3.2,3.34,3.34,0,0,0,1.09,2.79,4.13,4.13,0,0,0,2.64.86,7.88,7.88,0,0,0,4.55-1.43q2.08-1.43,2.16-5.21v-2.8Z" transform="translate(-123.89 -288.6)"/>

    <!-- Web -->
    <path d="M336.26,289h2.43l10,36h0.11L359,289h3l10.36,36h0.11l9.87-36h2.54l-11.06,38.52h-2.7l-10.58-36.47h-0.11L350,327.56h-2.64Z" transform="translate(-123.89 -288.6)"/>
    <path d="M386.44,314c-0.11,6.53,3.34,12.46,10.2,12.46a9.59,9.59,0,0,0,9.93-8.25h2c-1.08,6.47-5.39,10-12,10-8.09,0-12.36-6.37-12.25-14-0.11-7.61,3.88-15,12.25-15,8.69,0,12.57,6.85,12.19,14.78H386.44Zm20.34-1.78C406.67,306.36,403,301,396.64,301c-6.15,0-9.77,5.72-10.2,11.22h20.34Z" transform="translate(-123.89 -288.6)"/>
    <path d="M414.12,289h2.05v16.67h0.11c1.57-4.32,6-6.53,10.52-6.53,8.15,0,12,6.15,12,13.87,0,13.22-8.2,15.16-12,15.16a10.76,10.76,0,0,1-10.52-6.85h-0.11v6.2h-2.05V289Zm22.66,24c0-6.15-3.34-12.09-10-12.09-7.23,0-10.58,5.13-10.58,12.09,0,6.8,3,13.38,10.58,13.38C434.08,326.43,436.78,319.42,436.78,313.05Z" transform="translate(-123.89 -288.6)"/>

    <!-- Dot -->
    <path class="dot" fill="#4caf50" d="M442.22,319.36h8v7.9h-8v-7.9Z" transform="translate(-123.89 -288.6)"/>
</svg>
