<?xml version="1.0" encoding="UTF-8"?>
<svg viewBox="0 0 1427 182" version="1.1" xmlns="http://www.w3.org/2000/svg" xmlns:xlink="http://www.w3.org/1999/xlink">
  <g fill-rule="evenodd" fill="none" stroke-width="1" stroke="none">
    <g fill-rule="nonzero" fill="#FFFFFF" transform="translate(-662.000000, -421.000000)">
      <path d="m 1546.1586,466.625 c 36.3825,0 55.1232,18.37687 55.4944,44.94248 l 0.01,0.80752 v 86.25 h -29.25 v -13.25 c -7.75,10.75 -21.5,17.5 -41.25,17.5 -24.25,0 -45.75,-10.5 -45.75,-36.5 0,-29.205 25.7276,-39.54308 54.3809,-44.84099 l 30.8691,-5.65901 v -3 c 0,-12.5 -9.25,-19.5 -24,-19.5 -16.6954,0 -25.6544,7.28128 -37.9481,19.02182 l -1.8019,1.72818 -20.5,-18.75 c 16,-19 34.5,-28.75 59.75,-28.75 z m -328.8143,0 c 39,0 59.75,24.5 59.75,63.75 l -0.01,1.29978 c -0.042,3.75656 -0.2512,8.59583 -0.4664,11.15436 l -0.026,0.29586 h -91.75 c 2.75,18.5 13.75,32 36,32 14.6203,0 22.5905,-4.75004 36.874,-16.56501 l 1.126,-0.93499 18.25,20 c -18.75,19 -36.25,25 -57,25 -41.25,0 -67,-26.5 -67,-67.25 0,-39.5 24,-68.75 64.25,-68.75 z m -129.6571,0 c 39,0 59.75,24.5 59.75,63.75 l -0.01,1.29978 c -0.039,3.45603 -0.2187,7.82847 -0.4149,10.49824 l -0.077,0.95198 h -91.75 c 2.75,18.5 13.75,32 36,32 14.6202,0 22.5904,-4.75004 36.874,-16.56501 l 1.126,-0.93499 18.25,20 c -18.75,19 -36.25,25 -57,25 -41.25,0 -67,-26.5 -67,-67.25 0,-39.5 24,-68.75 64.25,-68.75 z m 823.1899,10 c 32,0 51.5,22 51.5,55.75 l -0.01,0.3044 c -0.035,1.24566 -0.2453,4.27778 -0.4637,5.74674 l -0.031,0.19886 h -92.75 c 0.25,28 13.25,53 44.25,53 14.3505,0 25.5177,-5.87693 41.0143,-22.47773 l 0.4857,-0.52227 8,7 c -17.25,19.5 -30.5,26 -50.5,26 -34.5,0 -55.75,-25 -55.75,-61.5 0,-37.75 21.75,-63.5 54.25,-63.5 z m 83.1571,-55.5 v 80.5 c 8.5,-15.75 23,-24.75 43,-24.75 30.75,0 51.75,25.25 51.75,62.5 0,36.75 -21.75,62 -52,62 -20.295,0 -34.9544,-8.8209 -43.2505,-24.5221 l -0.2495,-0.4779 v 22.25 h -11.25 v -177.5 z m -564.2827,45.5 c 27.225,0 42.1987,16.41667 42.4955,41.97278 l 0,0.77722 v 89.25 h -32.5 v -79.5 c 0,-14.25 -5.5,-24.5 -20.25,-24.5 -14.6025,0 -22.3443,10.7811 -22.4977,25.06606 l -0,0.43394 v 78.5 h -32.5 v -79.5 c 0,-14.25 -5.25,-24.5 -20.25,-24.5 -14.6025,0 -22.3443,11.02612 -22.4977,25.07341 l -0,0.42659 v 78.5 h -32.5 v -127.75 h 30.25 v 14.25 c 6.75,-11 18.5,-18.5 36.5,-18.5 16.75,0 28.75,7 35.5,18.75 7.5,-10.75 19.5,-18.75 38.25,-18.75 z m 228.2185,-45.5 22.25,93.5 c 5.5,23.14583 10.7899,45.66146 15.8698,68.70226 l 1.38,6.29574 1.1082,-4.48304 c 5.5659,-22.35345 11.5096,-43.67647 17.6593,-66.02992 l 1.2327,-4.48504 25.75,-93.5 h 14.25 l 25.5,93.5 c 7,25 13.25,48.75 19.5,74 4.0833,-19.63889 8.4691,-38.37037 13.0397,-57.48834 l 3.9603,-16.51166 22.25,-93.5 h 12.75 l -42.75,177.5 h -17.75 l -25.75,-93 -2.0741,-7.65055 c -5.5062,-20.36488 -10.8148,-40.48834 -15.9259,-61.59945 -5.4118,22.35294 -11.045,44.04152 -16.8997,65.4826 l -1.1003,4.0174 -25.75,92.75 h -19 l -42.5,-177.5 z m -648.69,48 c 6.75,0 12.5702,1.39477 19.4779,3.51183 l 0.7721,0.23817 -5.75,28.5 c -6.75,-1.75 -12,-2.5 -16.25,-2.5 -17.07746,0 -27.78431,13.47637 -27.99674,36.06278 l -0.003,0.68722 v 63 h -32.5 v -127.75 h 30.25 v 18.75 c 6,-12.25 16.25,-20.5 31.99996,-20.5 z m -162.1571,-48 v 61.25 c 8,-9.75 20.25,-15.75 36.25,-15.75 29.4525,0 45.42862,18.13185 45.7452,43.72226 l 0.005,0.77774 v 87.5 h -32.5 v -77.75 c 0,-16.75 -8.25,-26.25 -23.75,-26.25 -14.85,0 -25.53458,10.7811 -25.74678,26.52151 l -0.003,0.47849 v 77 h -32.5 v -177.5 z m -42.90714,0 v 30 h -53.5 v 147.5 h -35 v -147.5 h -53.5 v -30 z m 1232.56844,65.75 c -25,0 -43.5,19.25 -43.5,52.5 0,33.25 18.25,52 43.25,52 24,0 39.75,-21.5 39.75,-52 0,-31 -15.75,-52.5 -39.5,-52.5 z m -466.1256,59.75 v -7.5 l -22.6471,4.74066 c -18.6078,3.94234 -30.8529,8.49934 -30.8529,20.25934 0,8 7.25,12.75 19.5,12.75 16.335,0 33.6501,-7.8408 33.9948,-29.58677 z m 340.2185,-60 c -21.285,0 -37.9145,14.21145 -41.1559,41.66405 l -0.094,0.83595 h 81 c -0.75,-25 -15.5,-42.5 -39.75,-42.5 z m -824.1899,5.5 c -17.0775,0 -27.0493,11.02612 -30.6431,27.25658 l -0.1069,0.49342 h 59.75 c -1.25,-17 -11.25,-27.75 -29,-27.75 z m 129.6571,0 c -17.0775,0 -27.0492,11.02612 -30.643,27.25658 l -0.107,0.49342 h 59.75 c -1.25,-17 -11.25,-27.75 -29,-27.75 z" />
    </g>
    <g class="dot" fill-rule="nonzero" fill="#FFFFFF" transform="translate(-662.000000, -421.000000)">
      <path d="m 1653.3158,562.375 v 36.25 h -35.5 v -36.25 z" />
    </g>
  </g>
</svg>
