<?xml version="1.0" encoding="UTF-8" standalone="no"?>
<svg xmlns="http://www.w3.org/2000/svg" viewBox="0 0 321.02936 40.000001" version="1.1" fill="white">
  <g style="fill:none;fill-rule:evenodd;stroke:none;stroke-width:1" transform="matrix(0.22417504,0,0,0.22417504,0,4.4835008e-4)">
    <g transform="translate(-658,-423)" style="fill:#ffffff">
      <path d="m 1636.542,422.998 h 10.935 l 45.198,162.081 h 0.486 l 45.927,-162.081 h 13.365 l 46.656,162.081 h 0.486 l 44.469,-162.081 h 11.421 L 1805.67,596.5 h -12.15 l -47.628,-164.268 h -0.486 L 1698.507,596.5 H 1686.6 Z m 223.2294,112.266 v 1.458 c 0,7.29004 0.972,14.25597 2.916,20.898 1.944,6.64203 4.8194,12.47397 8.6265,17.496 3.807,5.02202 8.5859,8.99098 14.337,11.907 5.751,2.91602 12.4334,4.374 20.0475,4.374 12.474,0 22.3559,-3.28047 29.646,-9.8415 7.29,-6.56103 12.312,-15.67344 15.066,-27.3375 h 9.234 c -2.7541,14.58007 -8.7075,25.75796 -17.8605,33.534 -9.1531,7.77604 -21.2625,11.664 -36.3285,11.664 -9.2341,0 -17.2935,-1.66048 -24.1785,-4.9815 -6.8851,-3.32102 -12.636,-7.85697 -17.253,-13.608 -4.6171,-5.75103 -8.0595,-12.55496 -10.3275,-20.412 -2.268,-7.85704 -3.402,-16.32146 -3.402,-25.3935 0,-8.74804 1.1745,-17.13146 3.5235,-25.1505 2.349,-8.01904 5.8724,-15.06597 10.5705,-21.141 4.698,-6.07503 10.5704,-10.93498 17.6175,-14.58 7.047,-3.64502 15.3494,-5.4675 24.9075,-5.4675 8.748,0 16.4834,1.61998 23.2065,4.86 6.723,3.24002 12.3524,7.65447 16.8885,13.2435 4.536,5.58903 7.9785,12.06896 10.3275,19.44 2.349,7.37104 3.5235,15.26846 3.5235,23.6925 0,0.81 -0.041,1.74149 -0.1215,2.7945 -0.081,1.053 -0.1215,1.9035 -0.1215,2.5515 z m 91.611,-8.019 c -0.324,-6.80403 -1.458,-13.24347 -3.402,-19.3185 -1.944,-6.07503 -4.8195,-11.42098 -8.6265,-16.038 -3.8071,-4.61702 -8.424,-8.30249 -13.851,-11.0565 -5.4271,-2.75401 -11.6235,-4.131 -18.5895,-4.131 -7.4521,0 -14.013,1.41749 -19.683,4.2525 -5.6701,2.83501 -10.449,6.56098 -14.337,11.178 -3.8881,4.61702 -6.885,10.00347 -8.991,16.1595 -2.106,6.15603 -3.402,12.47397 -3.888,18.954 z m 27.3713,-104.247 h 9.234 v 75.087 h 0.486 c 1.782,-4.86002 4.293,-9.11248 7.533,-12.7575 3.24,-3.64502 6.966,-6.72299 11.178,-9.234 4.212,-2.51101 8.748,-4.37399 13.608,-5.589 4.8601,-1.21501 9.882,-1.8225 15.066,-1.8225 9.2341,0 17.2125,1.61998 23.9355,4.86 6.723,3.24002 12.3525,7.69497 16.8885,13.365 4.536,5.67003 7.8975,12.27146 10.0845,19.8045 2.187,7.53304 3.2805,15.67346 3.2805,24.4215 0,14.90407 -2.025,26.85146 -6.075,35.8425 -4.05,8.99104 -8.9099,15.87598 -14.58,20.655 -5.67,4.77902 -11.583,7.93799 -17.739,9.477 -6.156,1.53901 -11.421,2.3085 -15.795,2.3085 -8.262,0 -15.2684,-1.29599 -21.0195,-3.888 -5.751,-2.59201 -10.4895,-5.62948 -14.2155,-9.1125 -3.726,-3.48302 -6.561,-6.92548 -8.505,-10.3275 -1.944,-3.40202 -3.159,-5.91299 -3.645,-7.533 h -0.486 V 596.5 h -9.234 z m 57.105,168.399 c 8.2621,0 15.228,-1.78198 20.898,-5.346 5.6701,-3.56402 10.287,-8.22147 13.851,-13.9725 3.564,-5.75103 6.156,-12.23096 7.776,-19.44 1.62,-7.20904 2.43,-14.37746 2.43,-21.5055 0,-6.96604 -0.9315,-13.68897 -2.7945,-20.169 -1.863,-6.48003 -4.698,-12.27147 -8.505,-17.3745 -3.807,-5.10303 -8.5049,-9.19349 -14.094,-12.2715 -5.589,-3.07802 -12.1094,-4.617 -19.5615,-4.617 -8.1,0 -15.1469,1.37699 -21.141,4.131 -5.994,2.75401 -10.935,6.56098 -14.823,11.421 -3.888,4.86002 -6.804,10.61097 -8.748,17.253 -1.944,6.64203 -2.916,13.85096 -2.916,21.627 0,7.61404 0.891,15.06596 2.673,22.356 1.782,7.29004 4.5765,13.72947 8.3835,19.3185 3.807,5.58903 8.7075,10.08448 14.7015,13.4865 5.994,3.40202 13.284,5.103 21.87,5.103 z M 1561.807,534.475 c -2.159,1.34 -4.332,2.421 -6.525,3.248 -2.197,0.826 -5.209,1.594 -9.037,2.302 l -7.666,1.418 c -7.18,1.26 -12.337,2.795 -15.464,4.605 -5.3,3.07 -7.954,7.834 -7.954,14.288 0,5.748 1.617,9.901 4.86,12.458 3.233,2.559 7.171,3.839 11.809,3.839 7.354,0 14.127,-2.127 20.326,-6.378 6.192,-4.251 9.411,-12.004 9.651,-23.262 z m 40.739,62.586 h -36.604 c -1.028,-2.597 -1.738,-5.036 -2.125,-7.321 -0.399,-2.283 -0.71,-4.881 -0.946,-7.793 -4.672,5.039 -10.058,9.328 -16.156,12.871 -7.286,4.172 -15.522,6.258 -24.704,6.258 -11.723,0 -21.403,-3.327 -29.04,-9.978 -7.647,-6.651 -11.464,-16.079 -11.464,-28.282 0,-15.823 6.145,-27.278 18.439,-34.363 6.74,-3.857 16.655,-6.613 29.74,-8.267 l 11.542,-1.417 c 6.264,-0.785 10.745,-1.771 13.44,-2.951 4.836,-2.047 7.258,-5.235 7.258,-9.565 0,-5.274 -1.856,-8.916 -5.569,-10.924 -3.707,-2.007 -9.158,-3.011 -16.338,-3.011 -8.059,0 -13.767,1.969 -17.115,5.905 -2.399,2.913 -3.992,6.849 -4.788,11.809 h -32.474 c 0.71,-11.258 3.871,-20.507 9.488,-27.751 8.932,-11.337 24.272,-17.004 46.017,-17.004 14.15,0 26.722,2.795 37.713,8.384 10.989,5.59 16.481,16.138 16.481,31.647 v 59.043 c 0,4.095 0.082,9.054 0.24,14.879 0.235,4.409 0.902,7.4 2.005,8.975 1.104,1.576 2.753,2.875 4.96,3.896 z M 1447.977,468.819 c 5.512,2.204 10.51,6.063 14.999,11.573 3.617,4.487 6.058,9.998 7.32,16.532 0.787,4.33 1.181,10.668 1.181,19.011 l -0.236,81.126 h -34.484 v -81.952 c 0,-4.881 -0.787,-8.896 -2.36,-12.045 -2.993,-5.982 -8.5,-8.975 -16.531,-8.975 -9.292,0 -15.705,3.858 -19.25,11.573 -1.812,4.094 -2.714,9.015 -2.714,14.761 v 76.638 h -33.89 v -76.638 c 0,-7.635 -0.792,-13.186 -2.365,-16.65 -2.835,-6.218 -8.385,-9.329 -16.65,-9.329 -9.603,0 -16.06,3.111 -19.365,9.329 -1.813,3.542 -2.715,8.818 -2.715,15.824 v 77.464 h -34.13 V 468.583 h 32.71 v 18.775 c 4.173,-6.689 8.107,-11.454 11.81,-14.287 6.533,-5.038 14.995,-7.558 25.39,-7.558 9.838,0 17.792,2.166 23.855,6.494 4.878,4.015 8.576,9.173 11.1,15.469 4.408,-7.557 9.877,-13.107 16.41,-16.649 6.927,-3.542 14.644,-5.314 23.144,-5.314 5.67,0 11.259,1.103 16.771,3.306 z m -205.302,51.131 c -0.614,-8.934 -3.598,-15.712 -8.966,-20.338 -5.364,-4.626 -12.017,-6.939 -19.959,-6.939 -8.639,0 -15.336,2.451 -20.09,7.353 -4.757,4.903 -7.744,11.544 -8.964,19.924 z m 34.94,22.201 h -93.748 c 0.522,12.912 5.011,21.964 13.461,27.16 5.14,3.228 11.326,4.841 18.557,4.841 7.665,0 13.896,-1.966 18.686,-5.905 2.612,-2.125 4.923,-5.077 6.929,-8.855 h 34.356 c -0.903,7.636 -5.062,15.392 -12.473,23.263 -11.531,12.516 -27.673,18.775 -48.427,18.775 -17.132,0 -32.242,-5.279 -45.338,-15.836 -13.094,-10.557 -19.641,-27.735 -19.641,-51.533 0,-22.295 5.908,-39.394 17.732,-51.292 11.821,-11.897 27.163,-17.847 46.027,-17.847 11.201,0 21.293,2.011 30.273,6.032 8.975,4.022 16.391,10.37 22.243,19.041 5.272,7.648 8.687,16.518 10.255,26.611 0.902,5.913 1.272,14.428 1.108,25.545 z M 1108.062,519.95 c -0.613,-8.934 -3.6,-15.712 -8.966,-20.338 -5.365,-4.626 -12.018,-6.939 -19.961,-6.939 -8.638,0 -15.334,2.451 -20.089,7.353 -4.756,4.903 -7.743,11.544 -8.965,19.924 z m 34.939,22.201 h -93.747 c 0.522,12.912 5.009,21.964 13.461,27.16 5.139,3.228 11.325,4.841 18.556,4.841 7.666,0 13.896,-1.966 18.686,-5.905 2.614,-2.125 4.923,-5.077 6.927,-8.855 h 34.36 c -0.905,7.636 -5.064,15.392 -12.477,23.263 -11.53,12.516 -27.671,18.775 -48.424,18.775 -17.131,0 -32.243,-5.279 -45.339,-15.836 -13.094,-10.557 -19.64,-27.735 -19.64,-51.533 0,-22.295 5.909,-39.394 17.731,-51.292 11.819,-11.897 27.164,-17.847 46.028,-17.847 11.201,0 21.292,2.011 30.271,6.032 8.979,4.022 16.393,10.37 22.243,19.041 5.27,7.648 8.689,16.518 10.255,26.611 0.905,5.913 1.274,14.428 1.109,25.545 z M 984.004,473.188 c 6.297,-5.273 14.484,-7.911 24.562,-7.911 0.629,0 1.16,0.02 1.594,0.058 0.432,0.041 1.397,0.1 2.894,0.178 v 34.481 c -2.127,-0.236 -4.015,-0.393 -5.669,-0.473 -1.654,-0.077 -2.993,-0.118 -4.015,-0.118 -13.542,0 -22.634,4.411 -27.278,13.226 -2.598,4.96 -3.897,12.597 -3.897,22.909 v 61.523 H 938.304 V 468.347 h 32.12 v 22.436 c 5.196,-8.579 9.722,-14.446 13.58,-17.595 z m -81.22,-4.129 c 6.465,2.758 11.778,6.975 15.933,12.646 3.526,4.809 5.681,9.753 6.465,14.835 0.785,5.082 1.177,13.375 1.177,24.877 v 75.644 h -34.363 v -78.379 c 0,-6.936 -1.174,-12.534 -3.517,-16.788 -3.049,-5.989 -8.831,-8.985 -17.348,-8.985 -8.83,0 -15.532,2.975 -20.103,8.926 -4.573,5.951 -6.858,14.442 -6.858,25.476 v 69.75 H 810.515 V 423.592 h 33.655 v 61.405 c 4.861,-7.479 10.485,-12.694 16.872,-15.646 6.388,-2.953 13.11,-4.429 20.166,-4.429 7.917,0 15.109,1.38 21.576,4.137 z M 658,423 h 140.996 v 30.822 H 746.918 V 597.061 H 710.312 V 453.822 H 658 Z" />
    </g>
  </g>
  <g style="fill:none;fill-rule:evenodd;stroke:none;stroke-width:1" transform="matrix(0.22418178,0,0,0.22417504,0.09378239,8.6836256e-4)">
    <g transform="translate(-658,-423)" class="dot">
      <path d="m 1614.448,597.061 v -35.307 h 35.779 v 35.307 z" />
    </g>
  </g>
</svg>
