<?xml version="1.0" encoding="UTF-8"?>
<svg xmlns="http://www.w3.org/2000/svg" xmlns:xlink="http://www.w3.org/1999/xlink" viewBox="0 0 24 24" version="1.1" width="24px" height="24px">
<g id="surface1">
<path style=" " d="M 12 2 C 6.476563 2 2 6.476563 2 12 C 2 17.523438 6.476563 22 12 22 C 17.523438 22 22 17.523438 22 12 C 22 6.476563 17.523438 2 12 2 Z M 11.90625 4 C 11.9375 4 11.96875 4 12 4 C 12.53125 4 13.058594 4.058594 13.5625 4.15625 L 13.09375 4.09375 L 12.8125 6.0625 L 13.15625 6.125 L 13.6875 6.25 L 14.1875 4.3125 C 14.574219 4.421875 14.953125 4.554688 15.3125 4.71875 L 14.4375 6.53125 L 14.8125 6.6875 L 14.90625 6.75 L 15.21875 6.9375 L 16.25 5.25 C 16.589844 5.464844 16.917969 5.675781 17.21875 5.9375 L 15.875 7.4375 L 16.09375 7.625 L 11 11 L 7.59375 16.09375 L 7.46875 15.9375 L 6 17.28125 C 5.734375 16.976563 5.5 16.652344 5.28125 16.3125 L 6.96875 15.28125 L 6.75 14.90625 L 6.6875 14.8125 L 6.5625 14.5 L 4.75 15.375 C 4.582031 15.015625 4.457031 14.636719 4.34375 14.25 L 6.25 13.75 L 6.125 13.15625 L 6.0625 12.875 L 4.09375 13.15625 C 4.042969 12.796875 4.003906 12.433594 4 12.0625 L 5 12 L 5.15625 12 L 6 12.0625 L 6 11.9375 L 6.03125 11.4375 L 6.03125 11.34375 L 6.0625 11.1875 L 4.09375 10.875 L 4.0625 11.125 L 4.03125 11.1875 C 4.042969 11.082031 4.078125 10.976563 4.09375 10.875 C 4.144531 10.511719 4.214844 10.15625 4.3125 9.8125 L 6.25 10.3125 L 6.25 10.25 L 6.28125 10.1875 L 6.28125 10.15625 L 6.5 9.625 L 6.53125 9.5625 L 4.71875 8.6875 C 4.871094 8.347656 5.050781 8.03125 5.25 7.71875 L 6.96875 8.75 L 7 8.6875 L 7.03125 8.65625 L 7.0625 8.59375 L 7.34375 8.21875 L 7.4375 8.125 L 5.9375 6.78125 C 6.175781 6.503906 6.445313 6.242188 6.71875 6 L 8.0625 7.46875 L 8.15625 7.40625 L 8.21875 7.34375 L 8.59375 7.0625 L 8.625 7.03125 L 8.6875 7 L 8.71875 7 L 7.65625 5.28125 C 7.964844 5.082031 8.289063 4.90625 8.625 4.75 L 9.5 6.5625 L 9.625 6.5 L 10.15625 6.28125 L 10.25 6.25 L 9.75 4.34375 C 10.097656 4.242188 10.449219 4.148438 10.8125 4.09375 C 10.933594 4.074219 11.0625 4.042969 11.1875 4.03125 L 11.125 4.0625 L 10.8125 4.09375 L 11.125 6.0625 L 11.34375 6.03125 L 11.4375 6.03125 L 12 6 Z M 13.625 4.15625 C 13.777344 4.1875 13.914063 4.242188 14.0625 4.28125 L 13.65625 4.1875 Z M 18 6.71875 C 18.261719 7.015625 18.503906 7.324219 18.71875 7.65625 L 17 8.6875 L 17.25 9.09375 L 17.3125 9.1875 L 17.4375 9.46875 L 19.25 8.625 C 19.414063 8.976563 19.542969 9.34375 19.65625 9.71875 L 17.71875 10.21875 L 17.875 10.84375 L 17.90625 10.84375 L 17.9375 11.09375 L 19.90625 10.8125 C 19.960938 11.167969 19.996094 11.535156 20 11.90625 L 18.5625 11.96875 L 18 11.9375 L 18 12.0625 L 17.96875 12.5625 L 17.96875 12.65625 L 17.9375 12.84375 L 19.90625 13.15625 L 19.9375 12.875 L 19.96875 12.8125 C 19.957031 12.925781 19.921875 13.042969 19.90625 13.15625 C 19.855469 13.515625 19.785156 13.875 19.6875 14.21875 L 19.65625 14.21875 L 17.75 13.71875 L 17.75 13.75 L 17.71875 13.8125 L 17.71875 13.84375 L 17.5 14.375 L 17.46875 14.46875 L 19.25 15.34375 C 19.101563 15.667969 18.941406 15.980469 18.75 16.28125 L 17.03125 15.25 L 17 15.3125 L 16.96875 15.34375 L 16.9375 15.40625 L 16.65625 15.78125 L 16.59375 15.84375 L 16.5625 15.90625 L 18.03125 17.25 C 17.789063 17.527344 17.527344 17.789063 17.25 18.03125 L 15.90625 16.53125 L 15.78125 16.65625 L 15.40625 16.9375 L 15.3125 17 L 15.28125 17.03125 L 16.3125 18.71875 C 16 18.917969 15.683594 19.09375 15.34375 19.25 L 14.46875 17.46875 L 14.375 17.5 L 13.84375 17.71875 L 13.8125 17.71875 L 13.75 17.75 L 13.71875 17.75 L 14.21875 19.65625 L 14.21875 19.6875 C 13.875 19.785156 13.515625 19.855469 13.15625 19.90625 C 13.042969 19.921875 12.925781 19.957031 12.8125 19.96875 L 12.875 19.9375 L 13.15625 19.90625 L 12.84375 17.9375 L 12.65625 17.96875 L 12.5625 17.96875 L 11.96875 18 L 12.0625 20 C 12.042969 20 12.019531 20 12 20 C 11.617188 20 11.242188 19.957031 10.875 19.90625 L 11.15625 17.9375 L 10.84375 17.875 L 10.28125 17.75 L 9.78125 19.65625 C 9.410156 19.546875 9.035156 19.441406 8.6875 19.28125 L 9.53125 17.46875 L 9.1875 17.3125 L 9.09375 17.25 L 8.75 17.03125 L 7.71875 18.75 C 7.375 18.53125 7.054688 18.296875 6.75 18.03125 L 8.09375 16.5625 L 7.90625 16.40625 L 13 13 L 16.375 7.90625 L 16.5 8.0625 Z M 19.6875 9.8125 C 19.742188 10 19.804688 10.179688 19.84375 10.375 L 19.8125 10.34375 Z M 20 11.9375 C 20 11.957031 20 11.980469 20 12 C 20 12.019531 20 12.042969 20 12.0625 L 19 12 Z M 4.15625 13.625 L 4.1875 13.65625 L 4.25 13.9375 C 4.222656 13.832031 4.179688 13.734375 4.15625 13.625 Z M 10.03125 19.75 L 10.34375 19.8125 L 10.375 19.84375 C 10.257813 19.820313 10.148438 19.78125 10.03125 19.75 Z "/>
</g>
</svg>
