<?xml version="1.0" encoding="UTF-8" standalone="no"?>
<svg
   xmlns:dc="http://purl.org/dc/elements/1.1/"
   xmlns:cc="http://creativecommons.org/ns#"
   xmlns:rdf="http://www.w3.org/1999/02/22-rdf-syntax-ns#"
   xmlns:svg="http://www.w3.org/2000/svg"
   xmlns="http://www.w3.org/2000/svg"
   width="1024px"
   height="1024px"
   viewBox="0 0 1024 1024"
   version="1.1">
  <g stroke="none" stroke-width="1" fill="none" fill-rule="evenodd">
    <path style="fill:#000000" d="M 160 0 C 71.36 0 0 71.36 0 160 L 0 864 C 0 952.64 71.36 1024 160 1024 L 864 1024 C 952.64 1024 1024 952.64 1024 864 L 1024 160 C 1024 71.36 952.64 0 864 0 L 160 0 z M 512 139 C 693.70168 139 841 268.61356 841 428.5 C 841 588.38644 693.70168 718 512 718 C 460.28694 718 411.36142 707.50212 367.82422 688.79492 L 203 730 L 238.22461 589.09961 C 203.33892 543.14433 183 487.91271 183 428.5 C 183 268.61356 330.29832 139 512 139 z M 511.95703 274 C 460.4247 274 418.66602 315.77014 418.66602 367.19141 L 418.66602 404.46875 L 415 404.46875 C 406.71573 404.46875 400 411.18448 400 419.46875 L 400 551 C 400 559.28427 406.71573 566 415 566 L 609 566 C 617.28427 566 624 559.28427 624 551 L 624 419.46875 C 624 411.18448 617.28427 404.46875 609 404.46875 L 605.33398 404.46875 L 605.33398 367.19141 C 605.33398 315.77014 563.57684 274 511.95703 274 z M 511.97461 311.27734 C 542.94649 311.27734 568 336.34451 568 367.19727 L 568 404.46875 L 456 404.46875 L 456 367.19727 C 456 336.34451 481.05521 311.27734 511.97461 311.27734 z M 309.99805 792 C 340.95644 792 366 817.09956 366 847.99023 C 366 878.93993 340.95644 904 309.99805 904 C 279.09211 904 254.04883 878.93993 254.04883 847.99023 C 254.04883 817.09956 279.09211 792 309.99805 792 z M 511.94922 792 C 542.90761 792 567.95117 817.09956 567.95117 847.99023 C 567.95117 878.93993 542.90761 904 511.94922 904 C 481.04329 904 456 878.93993 456 847.99023 C 456 817.09956 481.04329 792 511.94922 792 z M 713.90039 792 C 744.85878 792 769.90234 817.09956 769.90234 847.99023 C 769.90234 878.93993 744.85878 904 713.90039 904 C 682.99446 904 657.95117 878.93993 657.95117 847.99023 C 657.95117 817.09956 682.99446 792 713.90039 792 z " />
  </g>
</svg>
